<svg width="211" height="24" viewBox="0 0 211 24" fill="none" xmlns="http://www.w3.org/2000/svg">
<path d="M14.7812 11.5156C14.7812 13.2031 15.1354 14.6146 15.8438 15.75C16.5417 16.8958 17.6094 17.4688 19.0469 17.4688C20.5052 17.4688 21.5833 16.8958 22.2812 15.75C22.9792 14.6354 23.3281 13.224 23.3281 11.5156C23.3281 9.84896 22.9792 8.44271 22.2812 7.29688C21.5833 6.17188 20.5052 5.60938 19.0469 5.60938C17.6094 5.60938 16.5417 6.17188 15.8438 7.29688C15.1354 8.46354 14.7812 9.86979 14.7812 11.5156ZM0 22.5938V0.484375H6.53125V9.03125H8.48438C8.90104 6.3125 10.0104 4.125 11.8125 2.46875C13.6042 0.822917 16.0156 0 19.0469 0C20.8073 0 22.375 0.291667 23.75 0.875C25.1354 1.45833 26.2656 2.27083 27.1406 3.3125C28.026 4.35417 28.6927 5.56771 29.1406 6.95312C29.599 8.33854 29.8281 9.85938 29.8281 11.5156C29.8281 13.1719 29.599 14.6979 29.1406 16.0938C28.6927 17.4896 28.026 18.7083 27.1406 19.75C26.2656 20.7917 25.1354 21.6094 23.75 22.2031C22.375 22.7865 20.8073 23.0781 19.0469 23.0781C16.026 23.0781 13.6042 22.2552 11.7812 20.6094C9.95833 18.9531 8.84896 16.6927 8.45312 13.8281H6.53125V22.5938H0ZM31.4375 22.5938V0.484375H37.9688V8.09375H44.75V0.484375H51.2812V22.5938H44.75V12.8906H37.9688V22.5938H31.4375ZM52.875 22.5938V0.484375H59.4062V12.7969H59.9531L66.6719 0.484375H74.3125V22.5938H67.7969V10.0781H67.3125L60.5 22.5938H52.875ZM59.4062 13.7969L59.4375 13.7656H59.4062V13.7969ZM75.9062 11.5156C75.9062 9.86979 76.1302 8.35417 76.5781 6.96875C77.0365 5.57292 77.7031 4.35417 78.5781 3.3125C79.4531 2.27083 80.5781 1.45833 81.9531 0.875C83.3385 0.291667 84.9062 0 86.6562 0C88.4167 0 89.9896 0.291667 91.375 0.875C92.7604 1.45833 93.8906 2.27083 94.7656 3.3125C95.6406 4.35417 96.3073 5.57292 96.7656 6.96875C97.224 8.35417 97.4531 9.86979 97.4531 11.5156C97.4531 13.1719 97.224 14.6979 96.7656 16.0938C96.3073 17.4896 95.6406 18.7083 94.7656 19.75C93.8906 20.7917 92.7604 21.6094 91.375 22.2031C89.9896 22.7865 88.4167 23.0781 86.6562 23.0781C84.9062 23.0781 83.3385 22.7865 81.9531 22.2031C80.5781 21.6094 79.4531 20.7917 78.5781 19.75C77.7031 18.7083 77.0365 17.4896 76.5781 16.0938C76.1302 14.6979 75.9062 13.1719 75.9062 11.5156ZM82.4062 11.5156C82.4062 13.2031 82.7604 14.6146 83.4688 15.75C84.1667 16.8958 85.2292 17.4688 86.6562 17.4688C88.1146 17.4688 89.1927 16.8958 89.8906 15.75C90.599 14.6146 90.9531 13.2031 90.9531 11.5156C90.9531 9.86979 90.599 8.46354 89.8906 7.29688C89.1927 6.17188 88.1146 5.60938 86.6562 5.60938C85.2292 5.60938 84.1667 6.17188 83.4688 7.29688C82.7604 8.46354 82.4062 9.86979 82.4062 11.5156ZM99.0312 22.5938V0.484375H105.562V8.09375H112.344V0.484375H118.875V22.5938H112.344V12.8906H105.562V22.5938H99.0312ZM120.469 22.5938V0.484375H127V22.5938H120.469ZM128.375 7.8125L133.688 0.484375H141.078L134.203 9.89062C134.193 9.91146 134.151 9.97396 134.078 10.0781C134.005 10.1823 133.969 10.2604 133.969 10.3125C133.969 10.375 134.036 10.5417 134.172 10.8125L141.078 22.5938H134.047L128.531 12.8906C127.854 11.7344 127.516 10.776 127.516 10.0156C127.516 9.33854 127.802 8.60417 128.375 7.8125ZM139.156 11.5156C139.156 9.86979 139.38 8.35417 139.828 6.96875C140.286 5.57292 140.953 4.35417 141.828 3.3125C142.703 2.27083 143.828 1.45833 145.203 0.875C146.589 0.291667 148.156 0 149.906 0C151.667 0 153.24 0.291667 154.625 0.875C156.01 1.45833 157.141 2.27083 158.016 3.3125C158.891 4.35417 159.557 5.57292 160.016 6.96875C160.474 8.35417 160.703 9.86979 160.703 11.5156C160.703 13.1719 160.474 14.6979 160.016 16.0938C159.557 17.4896 158.891 18.7083 158.016 19.75C157.141 20.7917 156.01 21.6094 154.625 22.2031C153.24 22.7865 151.667 23.0781 149.906 23.0781C148.156 23.0781 146.589 22.7865 145.203 22.2031C143.828 21.6094 142.703 20.7917 141.828 19.75C140.953 18.7083 140.286 17.4896 139.828 16.0938C139.38 14.6979 139.156 13.1719 139.156 11.5156ZM145.656 11.5156C145.656 13.2031 146.01 14.6146 146.719 15.75C147.417 16.8958 148.479 17.4688 149.906 17.4688C151.365 17.4688 152.443 16.8958 153.141 15.75C153.849 14.6146 154.203 13.2031 154.203 11.5156C154.203 9.86979 153.849 8.46354 153.141 7.29688C152.443 6.17188 151.365 5.60938 149.906 5.60938C148.479 5.60938 147.417 6.17188 146.719 7.29688C146.01 8.46354 145.656 9.86979 145.656 11.5156ZM162.281 22.5938V0.484375H168.812V8.09375H175.594V0.484375H182.125V22.5938H175.594V12.8906H168.812V22.5938H162.281ZM193.766 22.5938V19.625C190.724 19.2396 188.292 18.3281 186.469 16.8906C184.635 15.4531 183.719 13.5365 183.719 11.1406C183.719 8.73438 184.635 6.8125 186.469 5.375C188.292 3.9375 190.724 3.04167 193.766 2.6875V0.484375H200.297V2.6875C203.339 3.04167 205.771 3.9375 207.594 5.375C209.406 6.80208 210.312 8.72396 210.312 11.1406C210.312 13.5469 209.406 15.4635 207.594 16.8906C205.771 18.3281 203.339 19.2396 200.297 19.625V22.5938H193.766ZM190.219 11.1406C190.219 11.9948 190.495 12.6562 191.047 13.125C191.599 13.5833 192.505 13.901 193.766 14.0781V8.21875C192.516 8.39583 191.609 8.71875 191.047 9.1875C190.495 9.65625 190.219 10.3073 190.219 11.1406ZM200.297 8.21875V14.0781C201.526 13.901 202.417 13.5833 202.969 13.125C203.531 12.6562 203.812 11.9948 203.812 11.1406C203.812 10.3073 203.531 9.65625 202.969 9.1875C202.417 8.71875 201.526 8.39583 200.297 8.21875Z" fill="white"/>
</svg>
